<svg width="78" height="52" viewBox="0 0 78 52" fill="none" xmlns="http://www.w3.org/2000/svg">
<g clip-path="url(#clip0_108_499)">
<path d="M0 0H78V52.0006H0V0Z" fill="white"/>
<path d="M43.875 -0.000488281H34.125V21.1244H0V30.8744H34.125V51.9994H43.875V30.8744H78V21.1244H43.875V-0.000488281Z" fill="#D80027"/>
<path d="M59.9907 35.043L78 45.0483V35.043H59.9907ZM47.4783 35.043L78 51.9995V47.2046L56.1093 35.043H47.4783ZM69.8701 51.9995L47.4783 39.5584V51.9995H69.8701Z" fill="#0052B4"/>
<path d="M47.4783 35.043L78 51.9994V47.2046L56.1093 35.043H47.4783Z" fill="white"/>
<path d="M47.4783 35.043L78 51.9994V47.2046L56.1093 35.043H47.4783Z" fill="#D80027"/>
<path d="M13.7629 35.0425L0 42.6886V35.0425H13.7629ZM30.5218 37.1988V51.9991H3.88339L30.5218 37.1988Z" fill="#0052B4"/>
<path d="M21.8907 35.043L0 47.2046V51.9994L30.5218 35.043H21.8907Z" fill="#D80027"/>
<path d="M18.0093 16.956L0 6.95066V16.956H18.0093ZM30.5218 16.956L0 -0.000488281V4.79438L21.8907 16.956H30.5218ZM8.12998 -0.000488281L30.5218 12.4405V-0.000488281H8.12998Z" fill="#0052B4"/>
<path d="M30.5218 16.956L0 -0.000488281V4.79438L21.8907 16.956H30.5218Z" fill="white"/>
<path d="M30.5218 16.956L0 -0.000488281V4.79438L21.8907 16.956H30.5218Z" fill="#D80027"/>
<path d="M64.2371 16.9562L78 9.31001V16.9562H64.2371ZM47.4783 14.7999V-0.000488281H74.1166L47.4783 14.7999Z" fill="#0052B4"/>
<path d="M56.1093 16.956L78 4.79438V-0.000488281L47.4783 16.956H56.1093Z" fill="#D80027"/>
</g>
<defs>
<clipPath id="clip0_108_499">
<rect width="78" height="52" fill="white"/>
</clipPath>
</defs>
</svg>
