<svg width="78" height="52" viewBox="0 0 78 52" fill="none" xmlns="http://www.w3.org/2000/svg">
<g clip-path="url(#clip0_108_489)">
<path d="M0 0H78V52H0V0Z" fill="white"/>
<path fill-rule="evenodd" clip-rule="evenodd" d="M11.9087 15.751L19.1198 4.93431L21.0174 6.19942L13.8064 17.0161L11.9087 15.751ZM14.6129 17.5537L21.8239 6.73709L23.7216 8.00219L16.5105 18.8189L14.6129 17.5537ZM17.317 19.3565L24.5281 8.53986L26.4258 9.80496L19.2147 20.6216L17.317 19.3565ZM51.5698 42.1916L58.7809 31.375L60.6785 32.6401L53.4674 43.4567L51.5698 42.1916ZM54.274 43.9944L61.485 33.1778L63.3827 34.4429L56.1716 45.2595L54.274 43.9944ZM66.0869 36.2456L58.8758 47.0623L56.9781 45.7972L64.1892 34.9805L66.0869 36.2456Z" fill="black"/>
<path fill-rule="evenodd" clip-rule="evenodd" d="M62.8081 43.0141L53.7942 37.0049L54.8484 35.4235L63.8623 41.4327L62.8081 43.0141Z" fill="white"/>
<path d="M49.8144 33.2095C53.797 27.2356 52.1827 19.1643 46.2088 15.1818C40.2349 11.1992 32.1636 12.8135 28.1811 18.7873C24.1985 24.7612 25.8128 32.8325 31.7866 36.8151C37.7605 40.7977 45.8318 39.1834 49.8144 33.2095Z" fill="#CA163A"/>
<path d="M28.1811 18.7873C26.1908 21.7727 26.9984 25.811 29.9838 27.8012C32.9692 29.7915 37.0075 28.9838 38.9977 25.9984C40.988 23.013 45.0262 22.2054 48.0116 24.1956C50.997 26.1859 51.8046 30.2241 49.8144 33.2095C45.8339 39.1803 37.7574 40.7956 31.7866 36.8151C25.8158 32.8346 24.2005 24.7581 28.1811 18.7873V18.7873Z" fill="#0E4896"/>
<path fill-rule="evenodd" clip-rule="evenodd" d="M58.8757 4.93457L66.0868 15.7513L64.1892 17.0164L56.978 6.19967L58.8757 4.93457ZM56.1715 6.7374L63.3827 17.554L61.4851 18.8191L54.2739 8.00252L56.1715 6.7374ZM53.4674 8.54016L60.6785 19.3568L58.7808 20.6219L51.5697 9.80527L53.4674 8.54016ZM19.2145 31.3753L26.4256 42.192L24.528 43.4571L17.3169 32.6404L19.2145 31.3753ZM16.5103 33.1781L23.7215 43.9947L21.8238 45.2598L14.6127 34.4432L16.5103 33.1781ZM13.8064 34.9809L21.0175 45.7976L19.1198 47.0627L11.9087 36.246L13.8064 34.9809Z" fill="black"/>
<path d="M17.8186 40.118L20.5228 38.3153L17.8186 40.118ZM54.3211 15.7829L57.4796 13.6773L54.3211 15.7829ZM60.1838 11.8745L62.888 10.0718Z" fill="black"/>
<path fill-rule="evenodd" clip-rule="evenodd" d="M63.4151 10.8622L60.7109 12.6649L59.6567 11.0835L62.3608 9.28076L63.4151 10.8622ZM58.0067 14.4677L54.8483 16.5733L53.794 14.9919L56.9525 12.8863L58.0067 14.4677ZM21.0499 39.1057L18.3457 40.9084L17.2915 39.327L19.9957 37.5243L21.0499 39.1057Z" fill="white"/>
</g>
<defs>
<clipPath id="clip0_108_489">
<rect width="78" height="52" fill="white"/>
</clipPath>
</defs>
</svg>
